<svg id="Layer_3" data-name="Layer 3" xmlns="http://www.w3.org/2000/svg" viewBox="0 0 1134 283"><defs><style>.cls-1{fill:#fff;}</style></defs><title>done</title><path class="cls-1" d="M708,102.67q-14,0-19.62,7.38t-5.58,28.26l47-.9q0-22.5-4.14-29.34Q722,102.67,708,102.67Z"/><path class="cls-1" d="M508.83,105.73q-4.77-3.06-14.49-3.06t-14.49,3.06q-4.77,3.06-7.2,12t-2.43,26.73q0,17.82,2.34,26.82t7.2,12.06q4.86,3.06,14.58,3.06t14.49-3.06q4.77-3.06,7.11-12.06t2.34-26.82q0-17.82-2.34-26.73T508.83,105.73Z"/><path class="cls-1" d="M0,0V283H1134V0ZM789.35,71.71l-2.7,90.9H775.13l-2.52-90.9ZM383.28,199.14l-35.46-2.34V71.53q23.76-2.16,36-2.16t20.25,3.42a33.57,33.57,0,0,1,12.78,9.09A46.15,46.15,0,0,1,424.68,96q4.86,14,4.86,36.72Q429.54,199.15,383.28,199.14Zm141.3-13.95q-9,14-30.33,13.95T464,185.29q-8.91-13.86-8.91-40.77T464,103.66q8.91-13.95,30.24-14t30.33,14q9,14,9,40.77T524.58,185.2ZM638.52,196.8H623.39V132.37q0-20.52-2.61-24.48t-9.81-4q-13.68,0-31.68,9.54V196.8H564.36V92h10.08l1.62,10.26h.9q21.6-12.6,37.44-12.6,14.22,0,19.62,11,4.5,9.18,4.5,26.46Zm106.56-46.62H682.79q0,24.3,7.74,31.5Q695.4,186,703.86,186a90.27,90.27,0,0,0,29.7-5l4.86-1.8,3.78,12.24a72.36,72.36,0,0,1-33.48,7.74q-41.76,0-41.76-54.72t41.4-54.72q18.36,0,27.54,11.43T745.07,139Zm45.54,46.62H771.17v-16h19.44Z"/><path class="cls-1" d="M403.08,86.1q-4.14-3.6-17.46-3.6l-22.86,1.26L362.94,184a125.23,125.23,0,0,0,18.36,1.8q16.38,0,21.42-5,9.9-9.9,9.9-48.15T403.08,86.1Z"/></svg>