<svg id="Layer_3" data-name="Layer 3" xmlns="http://www.w3.org/2000/svg" viewBox="0 0 1134 283"><defs><style>.cls-1{fill:#fff;}</style></defs><title>easy</title><path class="cls-1" d="M505,148.38q-4.86,3.78-4.86,15.93t3.51,16.83q3.51,4.68,10.62,4.68a46.14,46.14,0,0,0,14.49-2.43,96.88,96.88,0,0,0,16.2-7.29V146.22A145.08,145.08,0,0,0,523,145Q508.91,145,505,148.38Z"/><path class="cls-1" d="M0,0V283H1134V0ZM462.48,85.21l-46.26-.54-.9,42.12h42.84v12.78H415.32l.9,44.1,46.26-.36v13.5H401.1V71.71h61.38Zm97.38,111.6h-9.72l-2.16-11H546.9q-1.8,1.44-5,3.69t-12.24,5.94a44.76,44.76,0,0,1-16.92,3.69q-12.78,0-20.52-8.73t-7.74-25.74q0-17,10.62-24.66t30.78-7.65h19.08q0-21.06-3.15-25.38t-11.61-4.32a77.46,77.46,0,0,0-17.91,2.25A133.78,133.78,0,0,0,492,111.67L486.78,100q2.34-1.08,6.21-2.79a119.27,119.27,0,0,1,14.49-4.59,74.86,74.86,0,0,1,19.44-2.88q32.94,0,32.94,38.16Zm86.31-6.57q-8.91,8.91-25.11,8.91A67.1,67.1,0,0,1,604.58,197a98.4,98.4,0,0,1-17.73-6.48l3.78-12.78a71.47,71.47,0,0,0,33.12,8.46q8.1,0,11.52-2.88,5.22-4.5,5.22-14,0-11.88-11-16.74a92.18,92.18,0,0,0-12.06-4.23q-7.74-2.25-10.53-3.15a48.86,48.86,0,0,1-7.38-3.33,21.29,21.29,0,0,1-6.75-5.13q-5.76-7.2-5.76-18.54,0-28.44,34.2-28.44A90.69,90.69,0,0,1,650,94l-2.34,12.6a100.23,100.23,0,0,0-26.82-4q-12.6,0-16.2,2.7t-3.6,10.44q0,6.84,2.61,9.45t4,3.87a17.36,17.36,0,0,0,4.86,2.61q3.42,1.35,5,1.89,6.66,2,12.06,3.42,12.06,3.42,18.72,9.72t6.66,20.43Q655.08,181.33,646.17,190.23Zm67.41-.09-9.72,36.54H688l14.22-40.14L666.05,92h17.64l24.66,76.86h.9L733.73,92h16.2Z"/></svg>