<svg id="Layer_2" data-name="Layer 2" xmlns="http://www.w3.org/2000/svg" viewBox="0 0 1134 283"><defs><style>.cls-1{fill:#fff;}</style></defs><title>hard</title><path class="cls-1" d="M518.1,148.38q-4.86,3.78-4.86,15.93t3.51,16.83q3.51,4.68,10.62,4.68a46.14,46.14,0,0,0,14.49-2.43,96.88,96.88,0,0,0,16.2-7.29V146.22A145.08,145.08,0,0,0,536.19,145Q522.05,145,518.1,148.38Z"/><path class="cls-1" d="M695.93,107.35q-6.48,8.46-6.48,39.15t8.1,37q2.34,2.16,9.09,2.16a41,41,0,0,0,13.5-2.34,77.21,77.21,0,0,0,14.49-7v-68.4A59.5,59.5,0,0,0,711.32,103Q699.53,103,695.93,107.35Z"/><path class="cls-1" d="M0,0V283H1134V0ZM469,196.8H454l.54-57.06H401.64l.54,57.06H387.06V71.71h15.12l-.54,54.72h52.74L454,71.71H469Zm104,0h-9.72l-2.16-11H560q-1.8,1.44-5,3.69t-12.24,5.94a44.76,44.76,0,0,1-16.92,3.69q-12.78,0-20.52-8.73t-7.74-25.74q0-17,10.62-24.66T539,132.37h19.08q0-21.06-3.15-25.38t-11.61-4.32a77.46,77.46,0,0,0-17.91,2.25,133.78,133.78,0,0,0-20.25,6.75L499.92,100q2.34-1.08,6.21-2.79a119.27,119.27,0,0,1,14.49-4.59,74.86,74.86,0,0,1,19.44-2.88q32.94,0,32.94,38.16ZM656.34,105q-4.14-.36-8.91-.36t-12.33,2.88a45.23,45.23,0,0,0-11.88,6.3v83H608.28V92h9.54l2,10.62h1.08a89.1,89.1,0,0,1,15.66-9.18q8.28-3.78,13.68-3.78l7.38.9Zm93.24,91.8h-9.9l-2-10.8h-1.08a52.35,52.35,0,0,1-4.14,3.6q-2.7,2.16-10.53,5.85a35.26,35.26,0,0,1-15,3.69q-15.3,0-24.21-13.23t-8.91-39.51q0-56.7,37.26-56.7,9.54,0,23.58,3.78V61.27h14.94Z"/></svg>