<svg id="Layer_1" data-name="Layer 1" xmlns="http://www.w3.org/2000/svg" viewBox="0 0 1134 283"><defs><style>.cls-1{fill:#fff;}</style></defs><title>medium</title><path class="cls-1" d="M425.52,102.67q-14,0-19.62,7.38t-5.58,28.26l47-.9q0-22.5-4.14-29.34Q439.56,102.67,425.52,102.67Z"/><path class="cls-1" d="M509,107.35q-6.48,8.46-6.48,39.15t8.1,37q2.34,2.16,9.09,2.16a41,41,0,0,0,13.5-2.34,77.23,77.23,0,0,0,14.49-7v-68.4A59.5,59.5,0,0,0,524.43,103Q512.64,103,509,107.35Z"/><path class="cls-1" d="M0,0V283H1134V0ZM338.58,196.8,337.5,83.41h-.9l-27.54,80.82H292l-27.9-80.82H263l-.72,113.4H247.14l3.78-125.1h22.32l26.64,80.82h.9l26.46-80.82h22.32l4.14,125.1Zm124-46.62H400.32q0,24.3,7.74,31.5,4.86,4.32,13.32,4.32a90.28,90.28,0,0,0,29.7-5l4.86-1.8,3.78,12.24a72.36,72.36,0,0,1-33.48,7.74q-41.76,0-41.76-54.72t41.4-54.72q18.36,0,27.54,11.43T462.6,139ZM562.68,196.8h-9.9l-2-10.8h-1.08a52.31,52.31,0,0,1-4.14,3.6q-2.7,2.16-10.53,5.85a35.25,35.25,0,0,1-15,3.69q-15.3,0-24.21-13.23t-8.91-39.51q0-56.7,37.26-56.7,9.54,0,23.58,3.78V61.27h14.94Zm50.22,0H598V92H612.9Zm1.8-120.24H596.34V61.27H614.7ZM721.8,196.8H711.72l-1.8-10.08H709q-.18,0-5.49,3t-8.73,4.59q-11,4.86-20.7,4.86-26.29,0-26.28-37.44V92h14.94v64.44q0,20.7,2.43,24.75t11.7,4.05q9.27,0,30-9.54V92H721.8Zm167.4,0H874.26v-63.9q0-20.7-2.61-24.84t-10.17-4.14q-13,0-31,10.26.72,7.92.72,13V196.8H816.3V132.37q0-11.52-.54-16.56a18.85,18.85,0,0,0-2.79-8.46q-2.25-3.42-9.27-3.42-11.88,0-30.6,9.36V196.8H758.16V92h10.08l1.62,10.26h.9q21.06-12.6,35.64-12.6a24.05,24.05,0,0,1,13.32,3.6,20.6,20.6,0,0,1,8.1,9.9q6.84-4.14,11.16-6.48A70.07,70.07,0,0,1,850.59,92a45.15,45.15,0,0,1,13.77-2.34q13.86,0,19.35,9.63t5.49,28.53Z"/></svg>