<svg id="Layer_3" data-name="Layer 3" xmlns="http://www.w3.org/2000/svg" viewBox="0 0 1134 283"><defs><style>.cls-1{fill:#fff;}</style></defs><title>nextlevel</title><path class="cls-1" d="M0,0V283H1134V0ZM251.7,196.8H230.64L180.78,85.93h-.72L182.4,196.8H167.64V71.71H188.7l50,110.88h.9l-2.7-110.88H251.7Zm109.62-46.62H299q0,24.3,7.74,31.5Q311.64,186,320.1,186a90.28,90.28,0,0,0,29.7-5l4.86-1.8,3.78,12.24A72.36,72.36,0,0,1,325,199.14q-41.76,0-41.76-54.72t41.4-54.72q18.36,0,27.54,11.43T361.32,139Zm78.12,46.62-22.86-45.18h-.9L393.36,196.8H376.08l31.32-54.54L376.44,92h16.92L416.22,134h1.08L439.44,92h16.92l-31,50.58,31.5,54.18Zm77.76-86.58H496.32v54.36q0,15.12,1.53,18.18t9.45,3.06l9.72-.36v12.06a45.21,45.21,0,0,1-10.08.9q-13,0-19.26-7.11t-6.3-27.81V109.87H469.5v-9.36L481.92,98l4-24.48h10.44V98.17H517.2ZM645.71,196.8h-59.4V71.71h15.12l-.9,111.6,45.18-.36Zm92.7-46.62H676.13q0,24.3,7.74,31.5Q688.74,186,697.2,186a90.27,90.27,0,0,0,29.7-5l4.86-1.8,3.78,12.24a72.36,72.36,0,0,1-33.48,7.74q-41.76,0-41.76-54.72t41.4-54.72q18.36,0,27.54,11.43T738.41,139Zm63.18,46.62H783.05L752.63,92h16.2l23,92.52H793L816.53,92h16.2Zm124.56-46.62H863.87q0,24.3,7.74,31.5,4.86,4.32,13.32,4.32a90.27,90.27,0,0,0,29.7-5l4.86-1.8,3.78,12.24a72.36,72.36,0,0,1-33.48,7.74q-41.76,0-41.76-54.72t41.4-54.72q18.36,0,27.54,11.43T926.15,139ZM969,196.8H954V61.27H969Z"/><path class="cls-1" d="M889.07,102.67q-14,0-19.62,7.38t-5.58,28.26l47-.9q0-22.5-4.14-29.34Q903.11,102.67,889.07,102.67Z"/><path class="cls-1" d="M701.33,102.67q-14,0-19.62,7.38t-5.58,28.26l47-.9q0-22.5-4.14-29.34Q715.37,102.67,701.33,102.67Z"/><path class="cls-1" d="M324.24,102.67q-14,0-19.62,7.38T299,138.31l47-.9q0-22.5-4.14-29.34Q338.28,102.67,324.24,102.67Z"/></svg>