<svg id="Layer_3" data-name="Layer 3" xmlns="http://www.w3.org/2000/svg" viewBox="0 0 1134 283"><defs><style>.cls-1{fill:#fff;}</style></defs><title>review</title><path class="cls-1" d="M681.54,102.67q-14,0-19.62,7.38t-5.58,28.26l47-.9q0-22.5-4.14-29.34Q695.57,102.67,681.54,102.67Z"/><path class="cls-1" d="M440.7,102.67q-14,0-19.62,7.38t-5.58,28.26l47-.9q0-22.5-4.14-29.34Q454.73,102.67,440.7,102.67Z"/><path class="cls-1" d="M351.06,128.5q4.68-6,4.68-20.43,0-20.52-7-24.66-4.14-2.52-15.39-2.52a202.57,202.57,0,0,0-26.19,2l-.36,49.86a275.14,275.14,0,0,0,28.26,1.8Q346.38,134.53,351.06,128.5Z"/><path class="cls-1" d="M0,0V283H1134V0ZM355.38,196.8l-25.74-49.68-22.68-.9V196.8h-15.3l.9-59.22L292,71.71a302.46,302.46,0,0,1,39.78-2.34q40,0,40,38.88,0,30.78-26.64,37.08V146l28.26,50.76Zm122.4-46.62H415.5q0,24.3,7.74,31.5Q428.1,186,436.56,186a90.28,90.28,0,0,0,29.7-5l4.86-1.8,3.78,12.24a72.36,72.36,0,0,1-33.48,7.74q-41.76,0-41.76-54.72t41.4-54.72q18.36,0,27.54,11.43T477.78,139ZM541,196.8H522.42L492,92h16.2l23,92.52h1.08L555.9,92h16.2Zm67.86,0H593.88V92h14.94Zm1.8-120.24H592.25V61.27h18.36Zm108,73.62H656.34q0,24.3,7.74,31.5,4.86,4.32,13.32,4.32a90.29,90.29,0,0,0,29.7-5l4.86-1.8,3.78,12.24a72.36,72.36,0,0,1-33.48,7.74q-41.76,0-41.76-54.72t41.4-54.72q18.36,0,27.54,11.43T718.62,139Zm117,46.62H813.47l-17.64-82.44h-1.08L777.11,196.8h-22L734.09,92h15.12l16.38,96.12h.9l17.82-82.26h22.14l17.64,82.26h1.08L841.37,92h15.3Z"/></svg>