<svg id="Layer_3" data-name="Layer 3" xmlns="http://www.w3.org/2000/svg" viewBox="0 0 1134 283"><defs><style>.cls-1{fill:#fff;}</style></defs><title>tryagain</title><polygon class="cls-1" points="526.01 83.94 509.45 150.72 543.65 150.72 527.09 83.94 526.01 83.94"/><path class="cls-1" d="M599.45,108q-5.4,5-5.4,18.45T599,144.79q4.95,4.86,17.28,4.86t17.37-4.77q5-4.77,5-17.73,0-12.6-1.44-17.55t-2.16-5.31Q634,103.39,618,103,604.85,103,599.45,108Z"/><path class="cls-1" d="M695,148.38q-4.86,3.78-4.86,15.93t3.51,16.83q3.51,4.68,10.62,4.68a46.14,46.14,0,0,0,14.49-2.43,96.84,96.84,0,0,0,16.2-7.29V146.22A145.09,145.09,0,0,0,713.12,145Q699,145,695,148.38Z"/><path class="cls-1" d="M0,0V283H1134V0ZM290.58,85.39l-35.1-.54.36,112H240.9l.36-112L206,85.39V71.71h84.6ZM351.24,105q-4.14-.36-8.91-.36T330,107.53a45.22,45.22,0,0,0-11.88,6.3v83H303.18V92h9.54l2,10.62h1.08a89.1,89.1,0,0,1,15.66-9.18q8.28-3.78,13.68-3.78l7.38.9Zm51.12,85.14-9.72,36.54H376.8L391,186.54,354.84,92h17.64l24.66,76.86h.9L422.52,92h16.2Zm152.82,6.66-8.64-33.48H506.75l-8.82,33.48h-16l35.28-125.1h18.9l35.28,125.1Zm103.68-95.4L647,103.21q6.12,13.5,6.12,24.3,0,15.84-10.17,25.65T615.11,163q-1.8,10.62-1.8,11.25t3.87,2.25q3.87,1.62,5,2,5.4,2.34,7.38,3.24,14.58,6.12,20.25,12.06t5.67,12.42q0,10.8-10.62,16.83t-28.26,6a128.76,128.76,0,0,1-17.28-1.17A118.85,118.85,0,0,1,582,224.17l1.8-13.5q25.92,4.5,38.43,4.5t16.11-1.53a5.38,5.38,0,0,0,3.6-5.31q0-3.78-4.14-6.66-5.76-4-23.13-11.07t-17.37-8l8.46-20.7q-12.24-2.88-19.26-12.06a34.82,34.82,0,0,1-7-21.78q0-20.52,11.43-29.43t30-8.91q11,0,38,2.16Zm91.08,95.4h-9.72l-2.16-11H737q-1.8,1.44-5,3.69t-12.24,5.94a44.76,44.76,0,0,1-16.92,3.69q-12.78,0-20.52-8.73t-7.74-25.74q0-17,10.62-24.66t30.78-7.65H735q0-21.06-3.15-25.38t-11.61-4.32a77.45,77.45,0,0,0-17.91,2.25,133.71,133.71,0,0,0-20.25,6.75L676.85,100q2.34-1.08,6.21-2.79a119.32,119.32,0,0,1,14.49-4.59A74.88,74.88,0,0,1,717,89.71q32.94,0,32.94,38.16Zm51.12,0H786.11V92h14.94Zm1.8-120.24H784.49V61.27h18.36ZM912.47,196.8H897.35V132.37q0-20.52-2.61-24.48t-9.81-4q-13.68,0-31.68,9.54V196.8H838.31V92h10.08L850,102.31h.9q21.6-12.6,37.44-12.6,14.22,0,19.62,11,4.5,9.18,4.5,26.46Z"/></svg>